<svg width="288" height="256" viewBox="0 0 288 256" xmlns="http://www.w3.org/2000/svg" xmlns:xlink="http://www.w3.org/1999/xlink"><svg viewBox="4 0 24 32" width="24" height="32" x="24" xmlns="http://www.w3.org/2000/svg"><g fill="#767676"><path d="M19 24h-6a3 3 0 0 1-3-3v-5a3 3 0 0 1 3-3 1 1 0 0 1 0 2 1 1 0 0 0-1 1v5a1 1 0 0 0 1 1h6a1 1 0 0 0 1-1v-5a1 1 0 0 0-1-1 1 1 0 0 1 0-2 3 3 0 0 1 3 3v5a3 3 0 0 1-3 3z"/><path d="M19.55 10.17l-3-2-.1-.05h-.1a1.05 1.05 0 0 0-.7 0h-.1l-.1.05-3 2a1 1 0 1 0 1.1 1.66l1.45-1V16a1 1 0 0 0 2 0v-5.13l1.45 1A.94.94 0 0 0 19 12a1 1 0 0 0 .55-1.83z"/></g></svg><svg viewBox="4 0 24 32" width="24" height="32" x="120" y="160" xmlns="http://www.w3.org/2000/svg"><path data-name="Address Book" d="M19 8h-6a3 3 0 0 0-3 3v10a3 3 0 0 0 3 3h6a3 3 0 0 0 3-3V11a3 3 0 0 0-3-3zm1 13a1 1 0 0 1-1 1h-6a1 1 0 0 1-1-1v-1h2a1 1 0 0 0 0-2h-2v-4h2a1 1 0 0 0 0-2h-2v-1a1 1 0 0 1 1-1h6a1 1 0 0 1 1 1z" fill="#767676"/></svg><svg viewBox="4 0 24 32" width="24" height="32" x="48" xmlns="http://www.w3.org/2000/svg"><path data-name="Expert Advice" d="M23 13h-3V9a1 1 0 0 0-1-1H9a1 1 0 0 0-1 1v7a1 1 0 0 0 1 1h3v3a1 1 0 0 0 1 1h3.59l2.7 2.71A1 1 0 0 0 20 24a.84.84 0 0 0 .38-.08A1 1 0 0 0 21 23v-2h2a1 1 0 0 0 1-1v-6a1 1 0 0 0-1-1zm-13 2v-5h8v3h-5a1 1 0 0 0-1 1v1zm12 4h-2a1 1 0 0 0-1 1v.59l-1.29-1.3A1 1 0 0 0 17 19h-3v-4h8z" fill="#767676"/></svg><svg viewBox="4 0 24 32" width="24" height="32" y="32" xmlns="http://www.w3.org/2000/svg"><path data-name="Arrow Go" d="M23.93 16.36a1 1 0 0 0 0-.72.41.41 0 0 0-.07-.11.6.6 0 0 0-.08-.16l-4-5a1 1 0 0 0-1.56 1.25l2.7 3.38H9a1 1 0 0 0 0 2h11.92l-2.7 3.37a1 1 0 0 0 .16 1.41A1 1 0 0 0 19 22a1 1 0 0 0 .78-.38l4-5a.44.44 0 0 0 .08-.15.41.41 0 0 0 .07-.11z" fill="#767676"/></svg><svg viewBox="4 0 24 32" width="24" height="32" x="24" y="32" xmlns="http://www.w3.org/2000/svg"><path d="M13.23 23.92a4.17 4.17 0 0 1-3-1.22l-1-1a4.21 4.21 0 0 1 0-6L16.05 9a3.63 3.63 0 0 1 5.12 0 3.55 3.55 0 0 1 0 5l-6.06 6a2.26 2.26 0 0 1-3.19-3.19l5.62-5.62a.94.94 0 0 1 1.33 0 1 1 0 0 1 0 1.33l-5.62 5.62a.37.37 0 0 0 .53.53l6.07-6.06a1.65 1.65 0 0 0 0-2.33 1.79 1.79 0 0 0-2.47 0l-6.78 6.81a2.34 2.34 0 0 0 0 3.29l1 1a2.32 2.32 0 0 0 3.27 0l5.78-5.79A.94.94 0 1 1 22 16.91l-5.81 5.79a4.16 4.16 0 0 1-2.96 1.22z" fill="#767676"/></svg><svg viewBox="4 0 24 32" width="24" height="32" x="48" y="32" xmlns="http://www.w3.org/2000/svg"><g data-name="Skip - Back" fill="#767676"><path d="M16 24a8 8 0 1 1 8-8 8 8 0 0 1-8 8zm0-14a6 6 0 1 0 6 6 6 6 0 0 0-6-6z"/><path d="M19 19v-6l-4 3 4 3zm-5 0a1 1 0 0 1-1-1v-4a1 1 0 0 1 2 0v4a1 1 0 0 1-1 1z"/></g></svg><svg viewBox="4 0 24 32" width="24" height="32" x="72" xmlns="http://www.w3.org/2000/svg"><path d="M22.16 13.73a3 3 0 0 0-3-2.73H19a3 3 0 0 0-6 0h-.17a3 3 0 0 0-3 2.73l-.64 7a3 3 0 0 0 3 3.27h7.62a3 3 0 0 0 3-3.27zM16 10a1 1 0 0 1 1 1h-2a1 1 0 0 1 1-1zm4.55 11.67a1 1 0 0 1-.74.33h-7.62a1 1 0 0 1-.74-.33 1 1 0 0 1-.26-.76l.64-7a1 1 0 0 1 1-.91h6.34a1 1 0 0 1 1 .91l.64 7a1 1 0 0 1-.26.76z" fill="#767676"/></svg><svg viewBox="4 0 24 32" width="24" height="32" x="72" y="32" xmlns="http://www.w3.org/2000/svg"><path d="M23.79 13.38A1 1 0 0 0 23 13h-2.52l-3.7-4.63a1 1 0 0 0-1.56 0L11.52 13H9a1 1 0 0 0-.79.38 1 1 0 0 0-.18.86l1.81 7.24A2 2 0 0 0 11.78 23h8.44a2 2 0 0 0 1.94-1.52L24 14.24a1 1 0 0 0-.21-.86zM21.22 17H17v-2h4.72zM16 10.6l1.92 2.4h-3.84zM15 15v2h-4.22l-.5-2zm-3.72 4H15v2h-3.22zM17 21v-2h3.72l-.5 2z" fill="#767676"/></svg><svg viewBox="4 0 24 32" width="24" height="32" y="64" xmlns="http://www.w3.org/2000/svg"><path d="M20 24a1 1 0 0 1-.71-.29L16 20.41l-3.29 3.3a1 1 0 0 1-1.09.21A1 1 0 0 1 11 23V11a3 3 0 0 1 3-3h4a3 3 0 0 1 3 3v12a1 1 0 0 1-.62.92.84.84 0 0 1-.38.08zm-4-6a1 1 0 0 1 .71.29l2.29 2.3V11a1 1 0 0 0-1-1h-4a1 1 0 0 0-1 1v9.59l2.29-2.3A1 1 0 0 1 16 18z" fill="#767676"/></svg><svg viewBox="4 0 24 32" width="24" height="32" x="24" y="64" xmlns="http://www.w3.org/2000/svg"><path d="M21 10V9a1 1 0 0 0-2 0v1h-6V9a1 1 0 0 0-2 0v1a3 3 0 0 0-3 3v8a3 3 0 0 0 3 3h10a3 3 0 0 0 3-3v-8a3 3 0 0 0-3-3zm-10 2h10a1 1 0 0 1 1 1v1H10v-1a1 1 0 0 1 1-1zm10 10H11a1 1 0 0 1-1-1v-5h12v5a1 1 0 0 1-1 1z" fill="#767676"/></svg><svg viewBox="4 0 24 32" width="24" height="32" x="48" y="64" xmlns="http://www.w3.org/2000/svg"><path d="M23.79 10.38A1 1 0 0 0 23 10H11a1 1 0 0 0-.29-.71l-1-1a1 1 0 0 0-1.42 1.42l.71.7V11a.7.7 0 0 0 0 .14.34.34 0 0 0 0 .1l1.81 7.24A2 2 0 0 0 12.78 20h7.44a2 2 0 0 0 1.94-1.52L24 11.24a1 1 0 0 0-.21-.86zM11.28 12h1.84l.25 2h-1.59zm1.5 6l-.5-2h1.34l.25 2zm4.34 0h-1.24l-.25-2h1.74zm.5-4h-2.24l-.25-2h2.74zm2.6 4h-1.09l.25-2h1.34zm1-4h-1.59l.25-2h1.84z" fill="#767676"/><circle cx="12.5" cy="22.5" r="1.5" fill="#767676"/><circle cx="20.5" cy="22.5" r="1.5" fill="#767676"/></svg><svg viewBox="4 0 24 32" width="24" height="32" x="72" y="64" xmlns="http://www.w3.org/2000/svg"><g fill="#767676"><path d="M16 24a8 8 0 1 1 8-8 8 8 0 0 1-8 8zm0-14a6 6 0 1 0 6 6 6 6 0 0 0-6-6z"/><path d="M18.53 18.89a1 1 0 0 1-.64-.23l-2.23-1.85A1.84 1.84 0 0 1 15 15.4V12a1 1 0 0 1 2 0v3.32l2.17 1.81a1 1 0 0 1 .12 1.4 1 1 0 0 1-.76.36z"/></g></svg><svg viewBox="4 0 24 32" width="24" height="32" x="96" xmlns="http://www.w3.org/2000/svg"><path data-name="Close" d="M17.41 16l4.3-4.29a1 1 0 0 0-1.42-1.42L16 14.59l-4.29-4.3a1 1 0 0 0-1.42 1.42l4.3 4.29-4.3 4.29a1 1 0 0 0 0 1.42 1 1 0 0 0 1.42 0l4.29-4.3 4.29 4.3a1 1 0 0 0 1.42 0 1 1 0 0 0 0-1.42z" fill="#767676"/></svg><svg viewBox="4 0 24 32" width="24" height="32" x="96" y="32" xmlns="http://www.w3.org/2000/svg"><path d="M12 14H9a1 1 0 0 1 0-2h3V9a1 1 0 0 1 2 0v3a2 2 0 0 1-2 2zm1 10a1 1 0 0 1-1-1v-3H9a1 1 0 0 1 0-2h3a2 2 0 0 1 2 2v3a1 1 0 0 1-1 1zm10-10h-3a2 2 0 0 1-2-2V9a1 1 0 0 1 2 0v3h3a1 1 0 0 1 0 2zm-4 10a1 1 0 0 1-1-1v-3a2 2 0 0 1 2-2h3a1 1 0 0 1 0 2h-3v3a1 1 0 0 1-1 1z" fill="#767676"/></svg><svg viewBox="4 0 24 32" width="24" height="32" x="96" y="64" xmlns="http://www.w3.org/2000/svg"><path d="M13 23a1 1 0 0 1-.45-.11A1 1 0 0 1 12 22v-2.34c-2.06-1-4-3-4-5.09C8 11.45 11.51 9 16 9s8 2.45 8 5.57-3.38 5.28-6.66 5.43l-3.74 2.8a1 1 0 0 1-.6.2zm3-12c-3.25 0-6 1.63-6 3.57 0 1.19 1.57 2.82 3.35 3.49A1 1 0 0 1 14 19v1l2.4-1.8a1 1 0 0 1 .6-.2c2.62 0 5-1.64 5-3.43 0-1.94-2.75-3.57-6-3.57z" fill="#767676"/></svg><svg viewBox="4 0 24 32" width="24" height="32" x="120" xmlns="http://www.w3.org/2000/svg"><path d="M21 8H11a3 3 0 0 0-3 3v6a3 3 0 0 0 3 3h2a2.07 2.07 0 0 1-2 2 1 1 0 0 0 0 2h10a1 1 0 0 0 0-2 2.07 2.07 0 0 1-2-2h2a3 3 0 0 0 3-3v-6a3 3 0 0 0-3-3zm-3.45 14h-3.1a3.93 3.93 0 0 0 .55-2h2a3.93 3.93 0 0 0 .55 2zM22 17a1 1 0 0 1-1 1H11a1 1 0 0 1-1-1v-6a1 1 0 0 1 1-1h10a1 1 0 0 1 1 1z" fill="#767676"/></svg><svg viewBox="4 0 24 32" width="24" height="32" x="120" y="32" xmlns="http://www.w3.org/2000/svg"><path d="M19.22 24c-2.12 0-5.43-3.08-6.79-4.44s-4.67-4.93-4.42-7a6 6 0 0 1 2.5-3.93 2.29 2.29 0 0 1 3.18.06l1.54 1.59a2.31 2.31 0 0 1 .41 2.6l-.58 1.26L17.77 17l1.37-.66a2.28 2.28 0 0 1 2.59.42l1.58 1.55a2.25 2.25 0 0 1 .06 3.18A6 6 0 0 1 19.46 24zm-7.15-14a.26.26 0 0 0-.18.08.52.52 0 0 1-.11.1 4.23 4.23 0 0 0-1.78 2.6c-.06.47 1 2.51 3.81 5.33S18.73 22 19.21 22a4.18 4.18 0 0 0 2.61-1.79.52.52 0 0 1 .1-.11.27.27 0 0 0 0-.38l-1.59-1.55a.27.27 0 0 0-.32 0l-2 1a1 1 0 0 1-1.16-.21L13.15 15a1 1 0 0 1-.15-1.1l.83-1.9a.31.31 0 0 0 0-.35l-1.54-1.6a.26.26 0 0 0-.22-.05z" fill="#767676"/></svg><svg viewBox="4 0 24 32" width="24" height="32" x="120" y="64" xmlns="http://www.w3.org/2000/svg"><path d="M21.07 8H15a2 2 0 0 0-2 2v1h-2a2 2 0 0 0-2 2v9a2 2 0 0 0 2 2h6a2 2 0 0 0 2-2v-1h2a2 2 0 0 0 2-2V9.93A1.94 1.94 0 0 0 21.07 8zM17 22h-6v-9l6-.07zm4-3h-2v-6.07A1.94 1.94 0 0 0 17.07 11H15v-1l6-.07z" fill="#767676"/></svg><svg viewBox="4 0 24 32" width="24" height="32" y="96" xmlns="http://www.w3.org/2000/svg"><path d="M16 20.42a2.42 2.42 0 0 1-1.7-.7l-6-6a1 1 0 0 1 1.42-1.42l6 6a.33.33 0 0 0 .56 0l6-6a1 1 0 0 1 1.42 1.42l-6 6a2.42 2.42 0 0 1-1.7.7z" fill="#767676" data-name="Arrow Down"/></svg><svg viewBox="4 0 24 32" width="24" height="32" x="24" y="96" xmlns="http://www.w3.org/2000/svg"><path d="M23 17a1 1 0 0 0-1 1l.07 3H10v-3a1 1 0 0 0-2 0v3a2 2 0 0 0 1.93 2h12.14A2 2 0 0 0 24 21v-3a1 1 0 0 0-1-1z" fill="#767676"/><path d="M14.75 18.18a2 2 0 0 0 2.5 0l2.37-1.9a1 1 0 1 0-1.24-1.56L17 15.82V8a1 1 0 0 0-2 0v7.82l-1.38-1.1a1 1 0 1 0-1.24 1.56z" fill="#767676"/></svg><svg viewBox="4 0 24 32" width="24" height="32" x="48" y="96" xmlns="http://www.w3.org/2000/svg"><path d="M9 24a1 1 0 0 1-.71-.29 1 1 0 0 1-.18-1.16l2-4a.72.72 0 0 1 .18-.25l9.33-9.5a2.53 2.53 0 1 1 3.59 3.57l-9.51 9.34a.72.72 0 0 1-.25.18l-4 2A.93.93 0 0 1 9 24zm2.82-4.41l-.58 1.17 1.17-.58L21.8 11a.53.53 0 0 0-.76-.74z" fill="#767676"/></svg><svg viewBox="4 0 24 32" width="24" height="32" x="72" y="96" xmlns="http://www.w3.org/2000/svg"><path d="M21 10H11a3 3 0 0 0-3 3v7a3 3 0 0 0 3 3h10a3 3 0 0 0 3-3v-7a3 3 0 0 0-3-3zm-.56 2L16 15.7 11.56 12zm.56 9H11a1 1 0 0 1-1-1v-6.7l5.36 4.47a1 1 0 0 0 1.28 0L22 13.3V20a1 1 0 0 1-1 1z" fill="#767676"/></svg><svg viewBox="4 0 24 32" width="24" height="32" x="96" y="96" xmlns="http://www.w3.org/2000/svg"><path d="M12.5 24H9.93A1.94 1.94 0 0 1 8 22.07V19.5a1 1 0 0 1 2 0v2.57l2.5-.07a1 1 0 0 1 0 2zm9.57 0H19.5a1 1 0 0 1 0-2h2.57L22 19.5a1 1 0 0 1 2 0v2.57A1.94 1.94 0 0 1 22.07 24zM9 13.5a1 1 0 0 1-1-1V9.93A1.94 1.94 0 0 1 9.93 8h2.57a1 1 0 0 1 0 2H9.93l.07 2.5a1 1 0 0 1-1 1zm14 0a1 1 0 0 1-1-1V9.93l-2.5.07a1 1 0 0 1 0-2h2.57A1.94 1.94 0 0 1 24 9.93v2.57a1 1 0 0 1-1 1z" fill="#767676"/></svg><svg viewBox="4 0 24 32" width="24" height="32" x="120" y="96" xmlns="http://www.w3.org/2000/svg"><g fill="#767676"><path d="M18 18a1 1 0 0 0-1 1 1 1 0 0 1-1 1h-5a1 1 0 0 1-1-1v-6a1 1 0 0 1 1-1h5a1 1 0 0 1 1 1 1 1 0 0 0 2 0 3 3 0 0 0-3-3h-5a3 3 0 0 0-3 3v6a3 3 0 0 0 3 3h5a3 3 0 0 0 3-3 1 1 0 0 0-1-1z"/><path d="M23.93 16.35a1.05 1.05 0 0 0 0-.7.93.93 0 0 0-.05-.1s0-.07-.05-.1l-2-3a1 1 0 0 0-1.66 1.1l1 1.45H16a1 1 0 0 0 0 2h5.13l-1 1.45a1 1 0 0 0 .28 1.38.94.94 0 0 0 .59.17 1 1 0 0 0 .83-.45l2-3s0-.07.05-.1a.93.93 0 0 0 .05-.1z"/></g></svg><svg viewBox="4 0 24 32" width="24" height="32" x="144" xmlns="http://www.w3.org/2000/svg"><g data-name="Fast Forward" fill="#767676"><path d="M16 24a8 8 0 1 1 8-8 8 8 0 0 1-8 8zm0-14a6 6 0 1 0 6 6 6 6 0 0 0-6-6z"/><path d="M17 19a1 1 0 0 1-.71-.29 1 1 0 0 1 0-1.42l1.3-1.29-1.3-1.29a1 1 0 0 1 1.42-1.42l2 2a1 1 0 0 1 0 1.42l-2 2A1 1 0 0 1 17 19z"/><path d="M13 19a1 1 0 0 1-.71-.29 1 1 0 0 1 0-1.42l1.3-1.29-1.3-1.29a1 1 0 0 1 1.42-1.42l2 2a1 1 0 0 1 0 1.42l-2 2A1 1 0 0 1 13 19z"/></g></svg><svg viewBox="4 0 24 32" width="24" height="32" x="144" y="32" xmlns="http://www.w3.org/2000/svg"><path d="M19 19h-2v-1.1a5 5 0 1 0-2 0V19h-2a1 1 0 0 0 0 2h2v2a1 1 0 0 0 2 0v-2h2a1 1 0 0 0 0-2zm-6-6a3 3 0 1 1 3 3 3 3 0 0 1-3-3z" fill="#767676"/></svg><svg viewBox="4 0 24 32" width="24" height="32" x="144" y="64" xmlns="http://www.w3.org/2000/svg"><g fill="#767676"><path d="M23 15h-7.18a3 3 0 0 0-5.64 0H9a1 1 0 0 0 0 2h1.18a3 3 0 0 0 5.64 0H23a1 1 0 0 0 0-2zm-10 2a1 1 0 1 1 1-1 1 1 0 0 1-1 1z"/><path d="M9 12h9.18a3 3 0 1 0 0-2H9a1 1 0 0 0 0 2zm12-2a1 1 0 1 1-1 1 1 1 0 0 1 1-1zm2 10h-1a1 1 0 0 0-.17 0 3 3 0 0 0-5.65 0H9a1 1 0 0 0 0 2h7.18a3 3 0 0 0 5.65 0 1 1 0 0 0 .17 0h1a1 1 0 0 0 0-2zm-4 2a1 1 0 1 1 1-1 1 1 0 0 1-1 1z"/></g></svg><svg viewBox="4 0 24 32" width="24" height="32" x="144" y="96" xmlns="http://www.w3.org/2000/svg"><path d="M24 19.76l-1-4a1 1 0 0 0-1-.76h-.14a4 4 0 0 0-3-2.9 3 3 0 0 0-5.69-.1H13a3 3 0 0 0-3 3 1 1 0 0 0-1 .76l-1 4a1 1 0 0 0 .18.86A1 1 0 0 0 9 21h14a1 1 0 0 0 .79-.38 1 1 0 0 0 .21-.86zM13 14h1a1 1 0 0 0 1-1 1 1 0 0 1 2 0 1 1 0 0 0 1 1 2 2 0 0 1 1.72 1H12a1 1 0 0 1 1-1zm-2.72 5l.5-2h10.44l.5 2z" fill="#767676"/></svg><svg viewBox="4 0 24 32" width="24" height="32" y="128" xmlns="http://www.w3.org/2000/svg"><path data-name="Food(2)" d="M22.92 8.62a1 1 0 0 0-.54-.54 1 1 0 0 0-.76 0 1 1 0 0 0-.33.21L20 9.59l-1.29-1.3a1 1 0 0 0-1.42 0L16 9.59l-1.29-1.3a1 1 0 0 0-1.42 0L12 9.59l-1.29-1.3a1 1 0 0 0-.33-.21 1 1 0 0 0-.76 0 1 1 0 0 0-.54.54A1 1 0 0 0 9 9v13a2 2 0 0 0 2 2h10a2 2 0 0 0 2-2V9a1 1 0 0 0-.08-.38zM11 16h10v2H11zm1.71-4.29l1.29-1.3 1.29 1.3a1 1 0 0 0 1.42 0l1.29-1.3 1.29 1.3a1 1 0 0 0 1.42 0l.29-.3V14H11v-2.59l.29.3a1 1 0 0 0 1.42 0zM11 22v-2h10v2z" fill="#767676"/></svg><svg viewBox="4 0 24 32" width="24" height="32" x="24" y="128" xmlns="http://www.w3.org/2000/svg"><path d="M9 23a1.09 1.09 0 0 1-.39-.08 1 1 0 0 1-.6-1c0-.09 1.12-8.2 9-8.84V11a1 1 0 0 1 .57-.9 1 1 0 0 1 1.05.12l5 4a1 1 0 0 1 .38.72 1 1 0 0 1-.29.77l-5 5a1 1 0 0 1-1.09.21A1 1 0 0 1 17 20v-1.92c-4 .59-7.19 4.5-7.22 4.55A1 1 0 0 1 9 23zm10-9.92V14a1 1 0 0 1-1 1 7.4 7.4 0 0 0-6.58 3.4A11.49 11.49 0 0 1 18 16a1 1 0 0 1 1 1v.59l2.5-2.51z" fill="#767676"/></svg><svg viewBox="4 0 24 32" width="24" height="32" x="48" y="128" xmlns="http://www.w3.org/2000/svg"><path d="M14 15h-3a1 1 0 0 1-1-1v-3a1 1 0 0 1 1-1h3a1 1 0 0 1 1 1v3a1 1 0 0 1-1 1zm-2-2h1v-1h-1zm2 9h-3a1 1 0 0 1-1-1v-3a1 1 0 0 1 1-1h3a1 1 0 0 1 1 1v3a1 1 0 0 1-1 1zm-2-2h1v-1h-1zm9-5h-3a1 1 0 0 1-1-1v-3a1 1 0 0 1 1-1h3a1 1 0 0 1 1 1v3a1 1 0 0 1-1 1zm-2-2h1v-1h-1zm2 9h-3a1 1 0 0 1-1-1v-3a1 1 0 0 1 1-1h3a1 1 0 0 1 1 1v3a1 1 0 0 1-1 1zm-2-2h1v-1h-1z" fill="#767676"/></svg><svg viewBox="4 0 24 32" width="24" height="32" x="72" y="128" xmlns="http://www.w3.org/2000/svg"><path d="M23.08 10.54l-.31-.31-1.64-1.64a1 1 0 0 0-1.42 0 1 1 0 0 0 0 1.41l1.64 1.64.32.31a.88.88 0 0 1 0 1.24l-.78.78-2.81-2.81a1 1 0 0 0-1.42 0 1 1 0 0 0 0 1.41l2.81 2.81-1.4 1.4L15.26 14a1 1 0 0 0-1.41 0 1 1 0 0 0 0 1.42l2.81 2.81-1.4 1.4-2.81-2.83a1 1 0 0 0-1.42 0 1 1 0 0 0 0 1.41L13.84 21l-.78.78a.88.88 0 0 1-1.24 0l-.31-.31-1.88-1.86a1 1 0 0 0-1.41 0 1 1 0 0 0 0 1.42l1.87 1.87.31.32a2.89 2.89 0 0 0 4.07 0L16 21.73l7.11-7.12a2.89 2.89 0 0 0-.03-4.07z" fill="#767676"/></svg><svg viewBox="4 0 24 32" width="24" height="32" x="96" y="128" xmlns="http://www.w3.org/2000/svg"><g fill="#767676"><path d="M12.16 18a1 1 0 0 1-.72-.31l-2.16-2.25a4.43 4.43 0 0 1-.92-1.3 4.38 4.38 0 0 1-.28-2.58 4.45 4.45 0 0 1 3.55-3.48 4.58 4.58 0 0 1 3.78 1 4.11 4.11 0 0 1 .59.59 4.11 4.11 0 0 1 .59-.59 4.58 4.58 0 0 1 3.78-1 4.46 4.46 0 0 1 3.55 3.46 4.38 4.38 0 0 1-.27 2.58 4.26 4.26 0 0 1-.93 1.32l-2.06 2.24a1 1 0 1 1-1.47-1.36l2.09-2.26a2.7 2.7 0 0 0 .53-.73 2.31 2.31 0 0 0 .14-1.4A2.43 2.43 0 0 0 20 10.05a2.58 2.58 0 0 0-2.14.53 2.39 2.39 0 0 0-.86 1.83 1 1 0 0 1-2 0 2.39 2.39 0 0 0-.87-1.83 2.58 2.58 0 0 0-2.13-.53 2.45 2.45 0 0 0-1.94 1.89 2.24 2.24 0 0 0 .15 1.4 2.32 2.32 0 0 0 .51.71l2.17 2.26a1 1 0 0 1 0 1.41 1 1 0 0 1-.73.28z"/><path d="M20 22h-3v-2.59l.29.3a1 1 0 0 0 1.42 0 1 1 0 0 0 0-1.42l-2-2a1 1 0 0 0-.33-.21 1 1 0 0 0-.76 0 1 1 0 0 0-.33.21l-2 2a1 1 0 0 0 0 1.42 1 1 0 0 0 1.42 0l.29-.3V22h-3a1 1 0 0 0 0 2h8a1 1 0 0 0 0-2z"/></g></svg><svg viewBox="4 0 24 32" width="24" height="32" x="120" y="128" xmlns="http://www.w3.org/2000/svg"><g fill="#767676"><circle cx="16" cy="21.6" r="1.4"/><path d="M12.27 12.73a3.73 3.73 0 0 1 7.46 0c0 2.2-2.8 3-2.8 5.14a.93.93 0 1 1-1.86 0 4 4 0 0 1 1.28-3c.55-.56 1.52-1.23 1.52-2.1a1.87 1.87 0 0 0-3.74 0v.47a.93.93 0 1 1-1.86 0z"/></g></svg><svg viewBox="4 0 24 32" width="24" height="32" x="144" y="128" xmlns="http://www.w3.org/2000/svg"><g data-name="View/Hide" fill="#767676"><path d="M23.77 15.37a15.35 15.35 0 0 0-3.45-3l1.45-1.74a1 1 0 0 0-1.54-1.28l-1.76 2.11A7.32 7.32 0 0 0 16 11c-4.16 0-7.63 4.19-7.77 4.37a1 1 0 0 0 0 1.26 15.35 15.35 0 0 0 3.45 3l-1.45 1.74a1 1 0 0 0 .13 1.41A1 1 0 0 0 11 23a1 1 0 0 0 .77-.36l1.76-2.11A7.32 7.32 0 0 0 16 21c4.16 0 7.63-4.19 7.77-4.37a1 1 0 0 0 0-1.26zM10.35 16c1.18-1.2 3.43-3 5.65-3a5 5 0 0 1 1.08.14L13 18.06A13.37 13.37 0 0 1 10.35 16zM16 19a5 5 0 0 1-1.08-.14L19 13.94A13.37 13.37 0 0 1 21.65 16c-1.18 1.2-3.43 3-5.65 3z"/><circle cx="16" cy="16" r="2"/></g></svg><svg viewBox="4 0 24 32" width="24" height="32" x="168" xmlns="http://www.w3.org/2000/svg"><g fill="#767676"><path d="M23 24H9a1 1 0 0 1-1-1v-8a1 1 0 0 1 .35-.76l7-6a1 1 0 0 1 1.3 0l7 6A1 1 0 0 1 24 15v8a1 1 0 0 1-1 1zm-13-2h12v-6.54l-6-5.14-6 5.14z"/><path d="M17.75 24h-3.5A1.25 1.25 0 0 1 13 22.75v-5.5A1.25 1.25 0 0 1 14.25 16h3.5A1.25 1.25 0 0 1 19 17.25v5.5A1.25 1.25 0 0 1 17.75 24zM15 22h2v-4h-2z"/></g></svg><svg viewBox="4 0 24 32" width="24" height="32" x="168" y="32" xmlns="http://www.w3.org/2000/svg"><path d="M21 10H11a3 3 0 0 0-3 3v6a3 3 0 0 0 3 3h10a3 3 0 0 0 3-3v-6a3 3 0 0 0-3-3zm-10 2h10a1 1 0 0 1 1 1v2.59l-2.29-2.3a1 1 0 0 0-1.42 0L15 16.59l-2.29-2.3a1 1 0 0 0-1.42 0L10 15.59V13a1 1 0 0 1 1-1zm10 8H11a1 1 0 0 1-1-1v-.59l2-2 2.29 2.3a1 1 0 0 0 1.42 0l3.29-3.3 3 3V19a1 1 0 0 1-1 1z" fill="#767676"/></svg><svg viewBox="4 0 24 32" width="24" height="32" x="168" y="64" xmlns="http://www.w3.org/2000/svg"><g fill="#767676"><path d="M18 21v-6a1 1 0 0 0-1-1h-3v2a1 1 0 0 1 1 1v4h-1v2h5v-2z"/><circle cx="16.13" cy="10.75" r="1.75"/></g></svg><svg viewBox="4 0 24 32" width="24" height="32" x="168" y="96" xmlns="http://www.w3.org/2000/svg"><g fill="#767676"><path d="M23 22h-.76A5.48 5.48 0 0 0 20 13.39l3.68-3.68a1 1 0 0 0 .21-1.09A1 1 0 0 0 23 8h-4a1 1 0 0 0-.71.29l-7 7a1 1 0 0 0 0 1.42l2 2a1 1 0 0 0 1.42 0l3.7-3.7A3.51 3.51 0 0 1 18 22H9a1 1 0 0 0 0 2h14a1 1 0 0 0 0-2zm-9-5.41l-.59-.59 6-6h1.18z"/><path d="M11 20.27a1 1 0 0 0 1.41 0 1 1 0 0 0 0-1.41l-1-1a1 1 0 0 0-1.41 0 1 1 0 0 0 0 1.41z"/></g></svg><svg viewBox="4 0 24 32" width="24" height="32" x="168" y="128" xmlns="http://www.w3.org/2000/svg"><path d="M19 24a1 1 0 0 1-.73-.32l-5.62-6a2.46 2.46 0 0 1 0-3.34l5.62-6a1 1 0 1 1 1.46 1.36l-5.62 6a.48.48 0 0 0 0 .62l5.62 6A1 1 0 0 1 19 24z" fill="#767676" data-name="Arrow Left"/></svg><svg viewBox="4 0 24 32" width="24" height="32" y="160" xmlns="http://www.w3.org/2000/svg"><path d="M16 23a1.91 1.91 0 0 1-1.4-.61l-5.33-5.66a4.5 4.5 0 0 1-.91-1.36 4.65 4.65 0 0 1-.28-2.66 4.53 4.53 0 0 1 3.54-3.62 4.47 4.47 0 0 1 3.71.93 4.31 4.31 0 0 1 .67.68 4.31 4.31 0 0 1 .67-.68 4.47 4.47 0 0 1 3.71-.93 4.53 4.53 0 0 1 3.54 3.6 4.73 4.73 0 0 1-.27 2.66 4.32 4.32 0 0 1-.91 1.36l-5.34 5.68A1.91 1.91 0 0 1 16 23zm-3.5-12a2.92 2.92 0 0 0-.5.05 2.51 2.51 0 0 0-1.95 2 2.66 2.66 0 0 0 .15 1.53 2.77 2.77 0 0 0 .53.76L16 21l5.26-5.64a2.4 2.4 0 0 0 .52-.76 2.62 2.62 0 0 0 .22-1.54 2.51 2.51 0 0 0-1.95-2 2.42 2.42 0 0 0-2.06.51 2.61 2.61 0 0 0-.94 2 1 1 0 0 1-2 0 2.61 2.61 0 0 0-.94-2A2.43 2.43 0 0 0 12.5 11z" fill="#767676"/></svg><svg viewBox="4 0 24 32" width="24" height="32" x="24" y="160" xmlns="http://www.w3.org/2000/svg"><path d="M22 17h-7a1 1 0 0 1 0-2h7a1 1 0 0 1 0 2zm0-5h-7a1 1 0 0 1 0-2h7a1 1 0 0 1 0 2zm-11 0h-1a1 1 0 0 1 0-2h1a1 1 0 0 1 0 2zm0 5h-1a1 1 0 0 1 0-2h1a1 1 0 0 1 0 2zm0 5h-1a1 1 0 0 1 0-2h1a1 1 0 0 1 0 2zm11 0h-7a1 1 0 0 1 0-2h7a1 1 0 0 1 0 2z" fill="#767676"/></svg><svg viewBox="4 0 24 32" width="24" height="32" x="48" y="160" xmlns="http://www.w3.org/2000/svg"><path d="M23.52 13.63a1 1 0 0 0-1.37.32l-.14.23A7.15 7.15 0 0 0 8 16a7.06 7.06 0 0 0 7.13 7 1 1 0 0 0 0-2A5.06 5.06 0 0 1 10 16a5.14 5.14 0 0 1 10.1-1.16l-.48-.28a1 1 0 1 0-1 1.72l1.28.72a2.28 2.28 0 0 0 1.18.32 2.34 2.34 0 0 0 2-1.1l.77-1.22a1 1 0 0 0-.33-1.37z" fill="#767676"/></svg><svg viewBox="4 0 24 32" width="24" height="32" x="72" y="160" xmlns="http://www.w3.org/2000/svg"><path d="M16 24a1 1 0 0 1-.89-.63l-1.84-4.6-4.6-1.84A1 1 0 0 1 8 16a1 1 0 0 1 .55-.93l14-7a1 1 0 0 1 1.34 1.34l-7 14A1 1 0 0 1 16 24zm-4.56-8.1l2.93 1.17a1 1 0 0 1 .56.56l1.17 2.93 4.66-9.32z" fill="#767676" data-name="Get Location"/></svg><svg viewBox="4 0 24 32" width="24" height="32" x="96" y="160" xmlns="http://www.w3.org/2000/svg"><path data-name="Get Location (2)" d="M23 15h-.08A7 7 0 0 0 17 9.08V9a1 1 0 0 0-2 0v.08A7 7 0 0 0 9.08 15H9a1 1 0 0 0 0 2h.08A7 7 0 0 0 15 22.92V23a1 1 0 0 0 2 0v-.08A7 7 0 0 0 22.92 17H23a1 1 0 0 0 0-2zm-2.1 0h-2.08A3 3 0 0 0 17 13.18V11.1a5 5 0 0 1 3.9 3.9zM16 17a1 1 0 1 1 1-1 1 1 0 0 1-1 1zm-1-5.9v2.08A3 3 0 0 0 13.18 15H11.1a5 5 0 0 1 3.9-3.9zM11.1 17h2.08A3 3 0 0 0 15 18.82v2.08a5 5 0 0 1-3.9-3.9zm5.9 3.9v-2.08A3 3 0 0 0 18.82 17h2.08a5 5 0 0 1-3.9 3.9z" fill="#767676"/></svg><svg viewBox="4 0 24 32" width="24" height="32" xmlns="http://www.w3.org/2000/svg"><g fill="#767676"><path d="M20 13v-.8A4.1 4.1 0 0 0 16 8a4.1 4.1 0 0 0-4 4.2v.8a3 3 0 0 0-3 3v5a3 3 0 0 0 3 3h8a3 3 0 0 0 3-3v-5a3 3 0 0 0-3-3zm-6-.8a2.11 2.11 0 0 1 2-2.2 2.11 2.11 0 0 1 2 2.2v.8h-4zm7 8.8a1 1 0 0 1-1 1h-8a1 1 0 0 1-1-1v-5a1 1 0 0 1 1-1h8a1 1 0 0 1 1 1z"/><path d="M18 18a2 2 0 0 0-4 0 2 2 0 0 0 1 1.72V20a1 1 0 0 0 2 0v-.28A2 2 0 0 0 18 18z"/></g></svg><svg viewBox="4 0 24 32" width="24" height="32" x="144" y="160" xmlns="http://www.w3.org/2000/svg"><path d="M22 8h-4a1 1 0 0 0 0 2h2.59l-3.12 3.11a6 6 0 1 0 1.42 1.42L22 11.41V14a1 1 0 0 0 2 0v-4a2 2 0 0 0-2-2zm-5.17 12.83a4.1 4.1 0 0 1-5.66 0 4 4 0 1 1 5.66 0z" fill="#767676"/></svg><svg viewBox="4 0 24 32" width="24" height="32" x="168" y="160" xmlns="http://www.w3.org/2000/svg"><path d="M23 17H9a1 1 0 0 1 0-2h14a1 1 0 0 1 0 2zm-4.67-5H9a1 1 0 0 1 0-2h9.33a1 1 0 0 1 0 2zm2.8 10H9a1 1 0 0 1 0-2h12.13a1 1 0 0 1 0 2z" fill="#767676"/></svg><svg viewBox="4 0 24 32" width="24" height="32" x="192" xmlns="http://www.w3.org/2000/svg"><path d="M23 17H9a1 1 0 0 1 0-2h14a1 1 0 0 1 0 2z" fill="#767676"/></svg><svg viewBox="4 0 24 32" width="24" height="32" x="192" y="32" xmlns="http://www.w3.org/2000/svg"><g fill="#767676"><path d="M19 24h-6a3 3 0 0 1-3-3V11a3 3 0 0 1 3-3h6a3 3 0 0 1 3 3v10a3 3 0 0 1-3 3zm-6-14a1 1 0 0 0-1 1v10a1 1 0 0 0 1 1h6a1 1 0 0 0 1-1V11a1 1 0 0 0-1-1z"/><path d="M16 21a1 1 0 0 1-.38-.08.9.9 0 0 1-.54-.54A1 1 0 0 1 15 20a1 1 0 1 1 2 0 1 1 0 0 1-.08.38 1.15 1.15 0 0 1-.21.33A1 1 0 0 1 16 21z"/></g></svg><svg viewBox="4 0 24 32" width="24" height="32" x="192" y="64" xmlns="http://www.w3.org/2000/svg"><path data-name="Mouse Pointer" d="M23.71 22.29l-3.93-3.92 3.59-1.44A1 1 0 0 0 24 16a1 1 0 0 0-.55-.93l-14-7a1 1 0 0 0-1.34 1.38l7 14A1 1 0 0 0 16 24a1 1 0 0 0 .89-.63l1.44-3.59 3.92 3.93a1 1 0 0 0 1.42 0 1 1 0 0 0 .04-1.42zm-7.81-1.73l-4.66-9.32 9.32 4.66-2.93 1.17a1.32 1.32 0 0 0-.25.16l-.13.12a1.21 1.21 0 0 0-.18.28z" fill="#767676"/></svg><svg viewBox="4 0 24 32" width="24" height="32" x="192" y="96" xmlns="http://www.w3.org/2000/svg"><path d="M18 17a1 1 0 0 1-1-1v-4a1 1 0 0 1 2 0v4a1 1 0 0 1-1 1z" fill="#767676"/><path d="M20 15h-4a1 1 0 0 1 0-2h4a1 1 0 0 1 0 2z" fill="#767676"/><path d="M16.78 24h-5.56A3.13 3.13 0 0 1 8 21v-6a3.13 3.13 0 0 1 3.22-3H13a1 1 0 0 1 0 2h-1.78A1.13 1.13 0 0 0 10 15v6a1.13 1.13 0 0 0 1.22 1h5.56A1.13 1.13 0 0 0 18 21v-2a1 1 0 0 1 2 0v2a3.13 3.13 0 0 1-3.22 3z" fill="#767676"/><path d="M20.78 20h-5.56A3.13 3.13 0 0 1 12 17v-6a3.13 3.13 0 0 1 3.22-3h5.56A3.13 3.13 0 0 1 24 11v6a3.13 3.13 0 0 1-3.22 3zm-5.56-10A1.13 1.13 0 0 0 14 11v6a1.13 1.13 0 0 0 1.22 1h5.56A1.13 1.13 0 0 0 22 17v-6a1.13 1.13 0 0 0-1.22-1z" fill="#767676"/></svg><svg viewBox="4 0 24 32" width="24" height="32" x="192" y="128" xmlns="http://www.w3.org/2000/svg"><g fill="#767676"><path d="M22.07 24H9.93A1.94 1.94 0 0 1 8 22.07V9.93A1.94 1.94 0 0 1 9.93 8H19a2 2 0 0 1 2 2v.33h1.07A1.94 1.94 0 0 1 24 12.27v9.8A1.94 1.94 0 0 1 22.07 24zM9.93 10L10 22.07 22.07 22 22 12.27l-1 .05V20a1 1 0 0 1-2 0V10z"/><path d="M16 19h-4a1 1 0 0 1 0-2h4a1 1 0 0 1 0 2zm1-3h-5a1 1 0 0 1 0-2h5a1 1 0 0 1 0 2zm0-3h-5a1 1 0 0 1 0-2h5a1 1 0 0 1 0 2z"/></g></svg><svg viewBox="4 0 24 32" width="24" height="32" x="192" y="160" xmlns="http://www.w3.org/2000/svg"><path d="M21 8H11a3 3 0 0 0-3 3v10a3 3 0 0 0 3 3h10a3 3 0 0 0 3-3V11a3 3 0 0 0-3-3zm-3 5.51a4.37 4.37 0 0 0 .27 1.49H17v-3a1 1 0 0 0-1.71-.73 2.46 2.46 0 0 1-1.78.74 2.52 2.52 0 0 1-2.46-2h8.65a4.52 4.52 0 0 0-1.7 3.5zm-4.49.49a4.37 4.37 0 0 0 1.49-.27V15h-3a1 1 0 0 0-.72.29 1 1 0 0 0 0 1.42A2.52 2.52 0 0 1 10 21v-8.7a4.52 4.52 0 0 0 3.51 1.7zm.5 4.49a4.37 4.37 0 0 0-.27-1.49H15v3a1 1 0 0 0 1.71.73 2.46 2.46 0 0 1 1.78-.73A2.52 2.52 0 0 1 21 22h-8.69A4.52 4.52 0 0 0 14 18.49zm4.48-.49a4.37 4.37 0 0 0-1.49.27V17h3a1 1 0 0 0 .71-.29 1 1 0 0 0 0-1.42 2.46 2.46 0 0 1-.71-1.78 2.52 2.52 0 0 1 2-2.46v8.65a4.52 4.52 0 0 0-3.51-1.7z" fill="#767676"/></svg><svg viewBox="4 0 24 32" width="24" height="32" x="216" xmlns="http://www.w3.org/2000/svg"><g fill="#767676"><path d="M16 24a8 8 0 1 1 8-8 8 8 0 0 1-8 8zm0-14a6 6 0 1 0 6 6 6 6 0 0 0-6-6z"/><path d="M14 19a1 1 0 0 1-1-1v-4a1 1 0 0 1 2 0v4a1 1 0 0 1-1 1zm4 0a1 1 0 0 1-1-1v-4a1 1 0 0 1 2 0v4a1 1 0 0 1-1 1z"/></g></svg><svg viewBox="4 0 24 32" width="24" height="32" x="216" y="32" xmlns="http://www.w3.org/2000/svg"><path d="M19 8h-6a3 3 0 0 0-3 3v10a3 3 0 0 0 3 3h6a3 3 0 0 0 3-3V11a3 3 0 0 0-3-3zm-7 13V11a1 1 0 0 1 1-1h6a1 1 0 0 1 1 1v7.78A2.95 2.95 0 0 0 16.78 22H13a1 1 0 0 1-1-1zm7 1h-.22A1 1 0 0 1 20 20.78V21a1 1 0 0 1-1 1z" fill="#767676"/></svg><svg viewBox="4 0 24 32" width="24" height="32" x="216" y="64" xmlns="http://www.w3.org/2000/svg"><path d="M17 24h-2a2 2 0 0 1-2-2v-3h-3a2 2 0 0 1-2-2v-2a2 2 0 0 1 2-2h3v-3a2 2 0 0 1 2-2h2a2 2 0 0 1 2 2v3h3a2 2 0 0 1 2 2v2a2 2 0 0 1-2 2h-3v3a2 2 0 0 1-2 2zm-7-9v2h3a2 2 0 0 1 2 2v3h2v-3a2 2 0 0 1 2-2h3v-2h-3a2 2 0 0 1-2-2v-3h-2v3a2 2 0 0 1-2 2z" fill="#767676"/></svg><svg viewBox="4 0 24 32" width="24" height="32" x="216" y="96" xmlns="http://www.w3.org/2000/svg"><g data-name="Pin" fill="#767676"><path d="M16 24a1.82 1.82 0 0 1-1.47-.76c0-.06-4.53-6.32-4.53-9.39a6 6 0 0 1 12 0c0 3.07-4.48 9.33-4.53 9.39A1.82 1.82 0 0 1 16 24zm.15-1.93zM16 10a3.93 3.93 0 0 0-4 3.85c0 1.57 2.31 5.64 4 8 1.69-2.37 4-6.44 4-8A3.93 3.93 0 0 0 16 10z"/><path d="M16 16a2 2 0 1 1 2-2 2 2 0 0 1-2 2zm0-2zm0 0zm0 0zm0 0zm0 0zm0 0zm0 0zm0 0z"/></g></svg><svg viewBox="4 0 24 32" width="24" height="32" x="216" y="128" xmlns="http://www.w3.org/2000/svg"><g fill="#767676"><path d="M16 24a8 8 0 1 1 8-8 8 8 0 0 1-8 8zm0-14a6 6 0 1 0 6 6 6 6 0 0 0-6-6z"/><path d="M14 13v6l5-3-5-3z"/></g></svg><svg viewBox="4 0 24 32" width="24" height="32" x="216" y="160" xmlns="http://www.w3.org/2000/svg"><path d="M23 15h-6V9a1 1 0 0 0-2 0v6H9a1 1 0 0 0 0 2h6v6a1 1 0 0 0 2 0v-6h6a1 1 0 0 0 0-2z" fill="#767676"/></svg><svg viewBox="4 0 24 32" width="24" height="32" y="192" xmlns="http://www.w3.org/2000/svg"><path data-name="Print" d="M22 13v-3a2 2 0 0 0-2-2h-8a2 2 0 0 0-2 2v3a2 2 0 0 0-2 2v5a2 2 0 0 0 2 2h1a2 2 0 0 0 2 2h6a2 2 0 0 0 2-2h1a2 2 0 0 0 2-2v-5a2 2 0 0 0-2-2zm-10-3h8v3h-8zm7 12h-6v-3h6zm3-2h-1v-1a2 2 0 0 0-2-2h-6a2 2 0 0 0-2 2v1h-1v-5h12z" fill="#767676"/></svg><svg viewBox="4 0 24 32" width="24" height="32" x="24" y="192" xmlns="http://www.w3.org/2000/svg"><g fill="#767676"><path d="M22 14a6 6 0 0 0-12 0 5.93 5.93 0 0 0 2 4.46V23a1 1 0 0 0 .53.88 1 1 0 0 0 1-.05L16 22.2l2.45 1.63A1 1 0 0 0 20 23v-4.54A6 6 0 0 0 22 14zm-3.6 3.2v.05a1 1 0 0 0-.13.16.83.83 0 0 0-.11.15l-.06.17v.2c0 .07-.1.07-.1.07v3.13l-1.45-1a1 1 0 0 0-1.1 0l-1.45 1v-3.19a.79.79 0 0 0-.05-.22 1 1 0 0 0 0-.16 1.53 1.53 0 0 0-.11-.16l-.13-.15-.05-.05A4 4 0 0 1 12 14a4 4 0 0 1 8 0 4 4 0 0 1-1.6 3.2z"/><path d="M16 11a3 3 0 1 0 3 3 3 3 0 0 0-3-3zm0 4a1 1 0 1 1 1-1 1 1 0 0 1-1 1z"/></g></svg><svg viewBox="4 0 24 32" width="24" height="32" x="48" y="192" xmlns="http://www.w3.org/2000/svg"><path d="M20 23a1 1 0 0 1-.6-.2L16 20.25l-3.4 2.55a1 1 0 0 1-1.13.05A1 1 0 0 1 11 21.8l.88-4.38L8.4 14.8A1 1 0 0 1 9 13h4.32l1.75-4.37a1 1 0 0 1 1.86 0L18.68 13H23a1 1 0 0 1 .6 1.8l-3.5 2.62.9 4.38a1 1 0 0 1-1 1.2zm-4-5a1 1 0 0 1 .6.2l1.91 1.43L18 17.2a1 1 0 0 1 .38-1L20 15h-2a1 1 0 0 1-.93-.63L16 11.69l-1.07 2.68A1 1 0 0 1 14 15h-2l1.6 1.2a1 1 0 0 1 .38 1l-.49 2.43 1.91-1.43a1 1 0 0 1 .6-.2z" fill="#767676"/></svg><svg viewBox="4 0 24 32" width="24" height="32" x="72" y="192" xmlns="http://www.w3.org/2000/svg"><path data-name="Rate Fill" d="M20 23a1 1 0 0 1-.6-.2L16 20.25l-3.4 2.55a1 1 0 0 1-1.13.05A1 1 0 0 1 11 21.8l.88-4.38L8.4 14.8A1 1 0 0 1 9 13h4.32l1.75-4.37a1 1 0 0 1 1.86 0L18.68 13H23a1 1 0 0 1 .6 1.8l-3.5 2.62.9 4.38a1 1 0 0 1-1 1.2z" fill="#767676"/></svg><svg viewBox="4 0 24 32" width="24" height="32" x="96" y="192" xmlns="http://www.w3.org/2000/svg"><path d="M23.51 13.93a1 1 0 0 0-1.37.35v.06a6.7 6.7 0 0 0-12-1.75 1 1 0 1 0 1.68 1.09A4.69 4.69 0 0 1 20.2 15l-.3-.17a1 1 0 1 0-1 1.71l1.2.72a2.27 2.27 0 0 0 1.15.32 2.24 2.24 0 0 0 1.92-1.09l.72-1.2a1 1 0 0 0-.38-1.36zm-1.86 4.45a1 1 0 0 0-1.39.29 4.69 4.69 0 0 1-8.46-1.32l.3.17a1 1 0 0 0 1-1.71l-1.2-.72a2.23 2.23 0 0 0-3.07.77l-.72 1.19a1 1 0 0 0 .35 1.37 1 1 0 0 0 .51.15 1 1 0 0 0 .86-.49v-.06a6.7 6.7 0 0 0 12 1.74 1 1 0 0 0-.18-1.38z" fill="#767676"/></svg><svg viewBox="4 0 24 32" width="24" height="32" x="120" y="192" xmlns="http://www.w3.org/2000/svg"><g fill="#767676"><path d="M16 24a8 8 0 1 1 8-8 8 8 0 0 1-8 8zm0-14a6 6 0 1 0 6 6 6 6 0 0 0-6-6z"/><path d="M15 19a1 1 0 0 1-.71-.29l-2-2a1 1 0 0 1 0-1.42l2-2a1 1 0 0 1 1.42 1.42L14.41 16l1.3 1.29a1 1 0 0 1 0 1.42A1 1 0 0 1 15 19z"/><path d="M19 19a1 1 0 0 1-.71-.29l-2-2a1 1 0 0 1 0-1.42l2-2a1 1 0 0 1 1.42 1.42L18.41 16l1.3 1.29a1 1 0 0 1 0 1.42A1 1 0 0 1 19 19z"/></g></svg><svg viewBox="4 0 24 32" width="24" height="32" x="144" y="192" xmlns="http://www.w3.org/2000/svg"><path d="M14 24a1 1 0 0 1-.73-1.68l5.62-6a.48.48 0 0 0 0-.62l-5.62-6a1 1 0 0 1 1.46-1.36l5.62 6a2.46 2.46 0 0 1 0 3.34l-5.62 6A1 1 0 0 1 14 24z" fill="#767676" data-name="Arrow Right"/></svg><svg viewBox="4 0 24 32" width="24" height="32" x="168" y="192" xmlns="http://www.w3.org/2000/svg"><g fill="#767676"><path d="M10.75 24a2.75 2.75 0 1 1 2.75-2.75A2.75 2.75 0 0 1 10.75 24zm0-3.5a.75.75 0 1 0 .75.75.76.76 0 0 0-.75-.75zM23 24a1 1 0 0 1-1-1A13 13 0 0 0 9 10a1 1 0 0 1 0-2 15 15 0 0 1 15 15 1 1 0 0 1-1 1z"/><path d="M18 24a1 1 0 0 1-1-1 7.91 7.91 0 0 0-8-8 1 1 0 0 1 0-2 9.89 9.89 0 0 1 10 10 1 1 0 0 1-1 1z"/></g></svg><svg viewBox="4 0 24 32" width="24" height="32" x="192" y="192" xmlns="http://www.w3.org/2000/svg"><path data-name="Search" d="M8 14.5a6.49 6.49 0 0 0 10.33 5.24l4 4a1 1 0 0 0 1.42 0 1 1 0 0 0 0-1.42l-4-4A6.5 6.5 0 1 0 8 14.5zm2 0a4.5 4.5 0 1 1 4.5 4.5 4.51 4.51 0 0 1-4.5-4.5z" fill="#767676"/></svg><svg viewBox="4 0 24 32" width="24" height="32" x="216" y="192" xmlns="http://www.w3.org/2000/svg"><g fill="#767676"><circle cx="16" cy="16" r="2"/><path d="M17 24h-2a1.5 1.5 0 0 1-1.5-1.5V22l-.33.32a1.46 1.46 0 0 1-1.06.44 1.46 1.46 0 0 1-1.06-.44L9.64 21a1.5 1.5 0 0 1 0-2.12l.36-.38h-.5A1.5 1.5 0 0 1 8 17v-2a1.5 1.5 0 0 1 1.5-1.5h.5l-.32-.33a1.5 1.5 0 0 1 0-2.12l1.41-1.41a1.46 1.46 0 0 1 1.06-.44 1.46 1.46 0 0 1 1.06.44l.33.32V9.5A1.5 1.5 0 0 1 15 8h2a1.5 1.5 0 0 1 1.5 1.5v.5l.33-.32a1.46 1.46 0 0 1 1.06-.44 1.46 1.46 0 0 1 1.11.4l1.41 1.41a1.5 1.5 0 0 1 0 2.12l-.41.33h.46A1.5 1.5 0 0 1 24 15v2a1.5 1.5 0 0 1-1.5 1.5H22l.32.33a1.5 1.5 0 0 1 0 2.12L21 22.36a1.46 1.46 0 0 1-1.06.44 1.46 1.46 0 0 1-1.06-.44L18.5 22v.46A1.5 1.5 0 0 1 17 24zm-1.5-2h1v-.88a1.5 1.5 0 0 1 .94-1.39l.17-.07a1.51 1.51 0 0 1 1.66.31l.62.63.71-.71-.6-.62a1.51 1.51 0 0 1-.31-1.66l.07-.17a1.5 1.5 0 0 1 1.39-.94H22v-1h-.88a1.5 1.5 0 0 1-1.39-.94l-.07-.17a1.51 1.51 0 0 1 .34-1.66l.63-.62-.71-.71-.62.63a1.53 1.53 0 0 1-1.66.31l-.17-.07a1.5 1.5 0 0 1-.94-1.39V10h-1v.88a1.5 1.5 0 0 1-.94 1.39l-.17.07a1.51 1.51 0 0 1-1.69-.34l-.62-.63-.71.71.63.62a1.51 1.51 0 0 1 .31 1.66l-.07.17a1.5 1.5 0 0 1-1.39.94H10v1h.88a1.5 1.5 0 0 1 1.39.94l.07.17a1.51 1.51 0 0 1-.34 1.69l-.63.62.71.71.62-.63a1.51 1.51 0 0 1 1.66-.31l.17.07a1.5 1.5 0 0 1 .94 1.39zm4-1.05zm-7.08 0zM21 19.54zm-9.9 0zm9.9-7.08zm-9.9 0zm8.49-1.41zm-7.07 0z"/></g></svg><svg viewBox="4 0 24 32" width="24" height="32" x="240" xmlns="http://www.w3.org/2000/svg"><path d="M21 18a3 3 0 0 0-2.08.84l-5-2.48a1.64 1.64 0 0 0 0-.72l5-2.48A3 3 0 1 0 18 11a2.2 2.2 0 0 0 0 .36l-5 2.48a3 3 0 1 0 0 4.32l5 2.48a2.2 2.2 0 0 0 0 .36 3 3 0 1 0 3-3zm0-8a1 1 0 1 1-1 1 1 1 0 0 1 1-1zm-10 7a1 1 0 1 1 1-1 1 1 0 0 1-1 1zm10 5a1 1 0 1 1 1-1 1 1 0 0 1-1 1z" fill="#767676"/></svg><svg viewBox="4 0 24 32" width="24" height="32" x="240" y="32" xmlns="http://www.w3.org/2000/svg"><g data-name="Shelter" fill="#767676"><path d="M23.24 13.06L17.31 8.5a2 2 0 0 0-2.62 0l-5.93 4.56A1.93 1.93 0 0 0 8 14.59v7.51A1.92 1.92 0 0 0 9.93 24h12.14A1.92 1.92 0 0 0 24 22.1v-7.51a1.93 1.93 0 0 0-.76-1.53zM15 22v-3a1 1 0 0 1 2 0v3zm7 0h-3v-3a3 3 0 0 0-6 0v3h-3v-7.35L16 10l.08.08L22 14.63z"/><path d="M14 14a1 1 0 0 0 1 1h2a1 1 0 0 0 0-2h-2a1 1 0 0 0-1 1z"/></g></svg><svg viewBox="4 0 24 32" width="24" height="32" x="240" y="64" xmlns="http://www.w3.org/2000/svg"><path d="M21 8H11a3 3 0 0 0-3 3v10a3 3 0 0 0 3 3h10a3 3 0 0 0 3-3V11a3 3 0 0 0-3-3zm1 3v2a2 2 0 0 1-2-2v-1h1a1 1 0 0 1 1 1zm-8-1h4v1a2 2 0 0 1-4 0zm-4 1a1 1 0 0 1 1-1h1v1a2 2 0 0 1-2 2zm7 11h-2v-2.33a1 1 0 0 1 2 0zm5-1a1 1 0 0 1-1 1h-2v-2.33a3 3 0 0 0-6 0V22h-2a1 1 0 0 1-1-1v-6a4 4 0 0 0 3-1.38 4 4 0 0 0 6 0A4 4 0 0 0 22 15z" fill="#767676"/></svg><svg viewBox="4 0 24 32" width="24" height="32" x="240" y="96" xmlns="http://www.w3.org/2000/svg"><g data-name="View/Show" fill="#767676"><path d="M16 21c-4.16 0-7.63-4.19-7.77-4.37a1 1 0 0 1 0-1.26C8.37 15.19 11.84 11 16 11s7.63 4.19 7.77 4.37a1 1 0 0 1 0 1.26C23.63 16.81 20.16 21 16 21zm-5.65-5c1 1 3.28 3 5.65 3s4.47-1.8 5.65-3c-1-1-3.28-3-5.65-3-2.22 0-4.47 1.8-5.65 3z"/><circle cx="16" cy="16" r="2"/></g></svg><svg viewBox="4 0 24 32" width="24" height="32" x="240" y="128" xmlns="http://www.w3.org/2000/svg"><g data-name="Skip - Forward" fill="#767676"><path d="M16 24a8 8 0 1 1 8-8 8 8 0 0 1-8 8zm0-14a6 6 0 1 0 6 6 6 6 0 0 0-6-6z"/><path d="M13 19v-6l4 3-4 3zm5 0a1 1 0 0 1-1-1v-4a1 1 0 0 1 2 0v4a1 1 0 0 1-1 1z"/></g></svg><svg viewBox="4 0 24 32" width="24" height="32" x="240" y="160" xmlns="http://www.w3.org/2000/svg"><g fill="#767676"><path d="M16 24a8 8 0 1 1 8-8 8 8 0 0 1-8 8zm0-14a6 6 0 1 0 6 6 6 6 0 0 0-6-6z"/><path d="M14 14h4v4h-4z"/></g></svg><svg viewBox="4 0 24 32" width="24" height="32" x="240" y="192" xmlns="http://www.w3.org/2000/svg"><path data-name="Sustainable Development" d="M21 18a1 1 0 0 0-1 1 1 1 0 0 1-1 1h-1a3 3 0 0 0-1 .18v-.76c.86-.86 3-3.23 3-5.42 0-2.58-3-5.42-3.32-5.73a1 1 0 0 0-1.36 0C15 8.58 12 11.42 12 14c0 2.19 2.14 4.56 3 5.42V23a1 1 0 0 0 2 0 1 1 0 0 1 1-1h1a3 3 0 0 0 3-3 1 1 0 0 0-1-1zm-5-7.57c.95 1 2 2.53 2 3.57s-1 2.53-2 3.57c-.95-1-2-2.53-2-3.57s1.05-2.53 2-3.57z" fill="#767676"/></svg><svg viewBox="4 0 24 32" width="24" height="32" y="224" xmlns="http://www.w3.org/2000/svg"><g fill="#767676"><path d="M20 24h-8a3 3 0 0 1-3-3V11a3 3 0 0 1 3-3h8a3 3 0 0 1 3 3v10a3 3 0 0 1-3 3zm-8-14a1 1 0 0 0-1 1v10a1 1 0 0 0 1 1h8a1 1 0 0 0 1-1V11a1 1 0 0 0-1-1z"/><path d="M16 21a1 1 0 0 1-.71-.29 1.15 1.15 0 0 1-.21-.33A1 1 0 0 1 15 20a1.05 1.05 0 0 1 .29-.71l.15-.12a.76.76 0 0 1 .18-.09l.18-.08a1 1 0 0 1 .58.06 1.15 1.15 0 0 1 .33.21A1.05 1.05 0 0 1 17 20a1 1 0 0 1-.08.38 1.15 1.15 0 0 1-.21.33A1 1 0 0 1 16 21z"/></g></svg><svg viewBox="4 0 24 32" width="24" height="32" x="24" y="224" xmlns="http://www.w3.org/2000/svg"><g data-name="Text - Decrease" fill="#767676"><path d="M20 8h-8a4 4 0 0 0-4 4 1 1 0 0 0 2 0 2 2 0 0 1 2-2h3v12h-2a1 1 0 0 0 0 2h6a1 1 0 0 0 0-2h-2V10h3a2 2 0 0 1 2 2 1 1 0 0 0 2 0 4 4 0 0 0-4-4z"/><path d="M13.71 17.29a1 1 0 0 0-1.42 0l-.29.3V15a1 1 0 0 0-2 0v2.59l-.29-.3a1 1 0 0 0-1.42 1.42l2 2a1 1 0 0 0 .33.21.94.94 0 0 0 .76 0 1 1 0 0 0 .33-.21l2-2a1 1 0 0 0 0-1.42z"/></g></svg><svg viewBox="4 0 24 32" width="24" height="32" x="48" y="224" xmlns="http://www.w3.org/2000/svg"><g data-name="Text - Enlarge" fill="#767676"><path d="M20 8h-8a4 4 0 0 0-4 4 1 1 0 0 0 2 0 2 2 0 0 1 2-2h3v12h-2a1 1 0 0 0 0 2h6a1 1 0 0 0 0-2h-2V10h3a2 2 0 0 1 2 2 1 1 0 0 0 2 0 4 4 0 0 0-4-4z"/><path d="M13.72 16.37l-2-2.07a1.16 1.16 0 0 0-.31-.22h-.16A1.55 1.55 0 0 0 11 14a.76.76 0 0 0-.16 0 .85.85 0 0 0-.22 0 .6.6 0 0 0-.21.14.39.39 0 0 0-.11.06l-2 2a1 1 0 0 0 0 1.42 1 1 0 0 0 1.42 0l.29-.3V20a1 1 0 0 0 2 0v-2.53l.28.29a1 1 0 0 0 1.44-1.39z"/></g></svg><svg viewBox="4 0 24 32" width="24" height="32" x="72" y="224" xmlns="http://www.w3.org/2000/svg"><path d="M14 21a1 1 0 0 1-.71-.29l-3-3a1 1 0 0 1 1.42-1.42l2.29 2.3 6.29-6.3a1 1 0 0 1 1.42 1.42l-7 7A1 1 0 0 1 14 21z" fill="#767676"/></svg><svg viewBox="4 0 24 32" width="24" height="32" x="96" y="224" xmlns="http://www.w3.org/2000/svg"><g fill="#767676"><path d="M20 13h-6v-.8a2.11 2.11 0 0 1 2-2.2 1.82 1.82 0 0 1 .91.24 2.05 2.05 0 0 1 .79.81 1 1 0 0 0 1.75-1A4.17 4.17 0 0 0 17.9 8.5 3.85 3.85 0 0 0 16 8a4.1 4.1 0 0 0-4 4.2v.8a3 3 0 0 0-3 3v5a3 3 0 0 0 3 3h8a3 3 0 0 0 3-3v-5a3 3 0 0 0-3-3zm1 8a1 1 0 0 1-1 1h-8a1 1 0 0 1-1-1v-5a1 1 0 0 1 1-1h8a1 1 0 0 1 1 1z"/><path d="M18 18a2 2 0 0 0-4 0 2 2 0 0 0 1 1.72V20a1 1 0 0 0 2 0v-.28A2 2 0 0 0 18 18z"/></g></svg><svg viewBox="4 0 24 32" width="24" height="32" x="120" y="224" xmlns="http://www.w3.org/2000/svg"><path d="M23 20a1 1 0 0 1-.71-.29l-6-6a.33.33 0 0 0-.56 0l-6 6a1 1 0 0 1-1.42-1.42l6-6a2.48 2.48 0 0 1 3.4 0l6 6a1 1 0 0 1 0 1.42A1 1 0 0 1 23 20z" fill="#767676" data-name="Arrow Up"/></svg><svg viewBox="4 0 24 32" width="24" height="32" x="144" y="224" xmlns="http://www.w3.org/2000/svg"><path d="M19.43 16.62a5 5 0 1 0-6.86 0A6.74 6.74 0 0 0 8 23a1 1 0 0 0 1 1h14a1 1 0 0 0 1-1 6.74 6.74 0 0 0-4.57-6.38zM13 13a3 3 0 1 1 3 3 3 3 0 0 1-3-3zm-2.9 9c.52-2.37 2.84-4 5.9-4s5.4 1.6 5.9 4z" fill="#767676"/></svg><svg viewBox="4 0 24 32" width="24" height="32" x="168" y="224" xmlns="http://www.w3.org/2000/svg"><path d="M18 17.62a4 4 0 1 0-6.07-.09A5.87 5.87 0 0 0 8 23a1 1 0 0 0 1 1h11.67a1 1 0 0 0 1-1A5.76 5.76 0 0 0 18 17.62zM15 13a2 2 0 1 1-2 2 2 2 0 0 1 2-2zm-4.87 9c.5-1.79 2.32-3 4.7-3s4.23 1.19 4.71 3zM23 10h-1V9a1 1 0 0 0-2 0v1h-1a1 1 0 0 0 0 2h1v1a1 1 0 0 0 2 0v-1h1a1 1 0 0 0 0-2z" data-name="Add User" fill="#767676"/></svg><svg viewBox="4 0 24 32" width="24" height="32" x="192" y="224" xmlns="http://www.w3.org/2000/svg"><path data-name="Vet" d="M22 19a2 2 0 0 0-4 0 2 2 0 0 0 1 1.71 1.5 1.5 0 0 1-3-.21v-2.63a5.42 5.42 0 0 0 4-5V10a2 2 0 0 0-2-2 1 1 0 0 0 0 2v2.86A3.32 3.32 0 0 1 15 16a3.29 3.29 0 0 1-3-3v-3a1 1 0 0 0 0-2 2 2 0 0 0-2 2v3a5.32 5.32 0 0 0 4 4.88v2.62a3.49 3.49 0 0 0 7 .24A2 2 0 0 0 22 19z" fill="#767676"/></svg><svg viewBox="4 0 24 32" width="24" height="32" x="216" y="224" xmlns="http://www.w3.org/2000/svg"><g fill="#767676"><path d="M21 22H11a3 3 0 0 1-3-3v-6a3 3 0 0 1 3-3h10a3 3 0 0 1 3 3v6a3 3 0 0 1-3 3zM11 12a1 1 0 0 0-1 1v6a1 1 0 0 0 1 1h10a1 1 0 0 0 1-1v-6a1 1 0 0 0-1-1z"/><path d="M17.89 15.78l-3.19-1.6a.26.26 0 0 0-.37.22v3.2a.26.26 0 0 0 .37.22l3.19-1.6a.25.25 0 0 0 0-.44z"/></g></svg><svg viewBox="4 0 24 32" width="24" height="32" x="240" y="224" xmlns="http://www.w3.org/2000/svg"><path data-name="Volume Off" d="M20.47 9.12a1 1 0 0 0-1 .05L13.7 13H11a1 1 0 0 0-1 1v4a1 1 0 0 0 1 1h2.7l5.75 3.83A1 1 0 0 0 21 22V10a1 1 0 0 0-.53-.88zM12 15h1v2h-1zm7 5.13l-4-2.67v-2.92l4-2.67z" fill="#767676"/></svg><svg viewBox="4 0 24 32" width="24" height="32" x="264" xmlns="http://www.w3.org/2000/svg"><path data-name="Volume On" d="M21 13v-3a1 1 0 0 0-.53-.88 1 1 0 0 0-1 .05L13.7 13H11a1 1 0 0 0-1 1v4a1 1 0 0 0 1 1h2.7l5.75 3.83A1 1 0 0 0 21 22v-3a3 3 0 0 0 0-6zm-9 2h1v2h-1zm7 5.13l-4-2.67v-2.92l4-2.67zM21 17v-2a1 1 0 0 1 0 2z" fill="#767676"/></svg><svg viewBox="4 0 24 32" width="24" height="32" x="264" y="32" xmlns="http://www.w3.org/2000/svg"><path d="M22.33 21A3.79 3.79 0 0 0 24 18c0-2.22-2.16-4-4.82-4s-4.82 1.79-4.82 4 2.16 4 4.82 4a5.73 5.73 0 0 0 1.57-.22h.15a.45.45 0 0 1 .25.07l1.06.61h.09a.16.16 0 0 0 .16-.16v-.12l-.21-.81v-.1a.3.3 0 0 1 .08-.27zM13.78 9.53C10.59 9.53 8 11.69 8 14.35A4.53 4.53 0 0 0 10 18a.39.39 0 0 1 .16.32v.12l-.26 1v.14a.19.19 0 0 0 .19.2h.11l1.22-.78a.54.54 0 0 1 .31-.09h.17a6.78 6.78 0 0 0 1.88.26h.32a3.84 3.84 0 0 1-.19-1.17c0-2.43 2.36-4.39 5.27-4.39h.31c-.43-2.32-2.82-4.08-5.71-4.08zm3.79 7.81a.65.65 0 1 1 .65-.64.64.64 0 0 1-.65.64zm3.22 0a.65.65 0 1 1 .64-.64.65.65 0 0 1-.64.64zm-8.93-3.76a.77.77 0 1 1 0-1.54.77.77 0 1 1 0 1.54zm3.85 0a.77.77 0 1 1 .77-.77.77.77 0 0 1-.77.77z" fill="#767676" fill-rule="evenodd"/></svg><svg viewBox="4 0 24 32" width="24" height="32" x="264" y="64" xmlns="http://www.w3.org/2000/svg"><g fill="#767676"><path d="M18.33 15.6a1 1 0 0 1-1-1 1.33 1.33 0 1 0-2.66 0 1 1 0 0 1-2 0 3.33 3.33 0 1 1 6.66 0 1 1 0 0 1-1 1z"/><path d="M22.07 24H9.93A1.94 1.94 0 0 1 8 22.07v-9.8a1.94 1.94 0 0 1 1.93-1.94h2A4.63 4.63 0 0 1 16 8a4.75 4.75 0 0 1 4.09 2.35h2A1.94 1.94 0 0 1 24 12.27v9.8A1.94 1.94 0 0 1 22.07 24zM9.93 12.33l.07 9.74L22.07 22 22 12.33h-2a2 2 0 0 1-1.68-1 2.73 2.73 0 0 0-4.72 0 2 2 0 0 1-1.68 1zm12.14 0z"/></g></svg></svg>